<svg width="28" height="28" viewBox="0 0 28 28" fill="none" xmlns="http://www.w3.org/2000/svg">
<path d="M20.9729 4.375H6.9729C5.0399 4.375 3.4729 5.942 3.4729 7.875V20.125C3.4729 22.058 5.0399 23.625 6.9729 23.625H20.9729C22.9059 23.625 24.4729 22.058 24.4729 20.125V7.875C24.4729 5.942 22.9059 4.375 20.9729 4.375Z" fill="url(#paint0_linear_354_3321)"/>
<path d="M20.9729 4.375H6.9729C5.0399 4.375 3.4729 5.942 3.4729 7.875V20.125C3.4729 22.058 5.0399 23.625 6.9729 23.625H20.9729C22.9059 23.625 24.4729 22.058 24.4729 20.125V7.875C24.4729 5.942 22.9059 4.375 20.9729 4.375Z" fill="url(#paint1_linear_354_3321)"/>
<path d="M20.9729 4.375H6.9729C5.0399 4.375 3.4729 5.942 3.4729 7.875V20.125C3.4729 22.058 5.0399 23.625 6.9729 23.625H20.9729C22.9059 23.625 24.4729 22.058 24.4729 20.125V7.875C24.4729 5.942 22.9059 4.375 20.9729 4.375Z" fill="url(#paint2_linear_354_3321)"/>
<path d="M20.9729 4.375H6.9729C5.0399 4.375 3.4729 5.942 3.4729 7.875V20.125C3.4729 22.058 5.0399 23.625 6.9729 23.625H20.9729C22.9059 23.625 24.4729 22.058 24.4729 20.125V7.875C24.4729 5.942 22.9059 4.375 20.9729 4.375Z" fill="url(#paint3_linear_354_3321)"/>
<path d="M20.9729 4.375H6.9729C5.0399 4.375 3.4729 5.942 3.4729 7.875V20.125C3.4729 22.058 5.0399 23.625 6.9729 23.625H20.9729C22.9059 23.625 24.4729 22.058 24.4729 20.125V7.875C24.4729 5.942 22.9059 4.375 20.9729 4.375Z" fill="url(#paint4_linear_354_3321)"/>
<path d="M20.9729 4.375H6.9729C5.0399 4.375 3.4729 5.942 3.4729 7.875V20.125C3.4729 22.058 5.0399 23.625 6.9729 23.625H20.9729C22.9059 23.625 24.4729 22.058 24.4729 20.125V7.875C24.4729 5.942 22.9059 4.375 20.9729 4.375Z" fill="url(#paint5_radial_354_3321)"/>
<path d="M20.9729 4.375H6.9729C5.0399 4.375 3.4729 5.942 3.4729 7.875V20.125C3.4729 22.058 5.0399 23.625 6.9729 23.625H20.9729C22.9059 23.625 24.4729 22.058 24.4729 20.125V7.875C24.4729 5.942 22.9059 4.375 20.9729 4.375Z" fill="url(#paint6_radial_354_3321)"/>
<path d="M20.9729 4.375H6.9729C5.0399 4.375 3.4729 5.942 3.4729 7.875V20.125C3.4729 22.058 5.0399 23.625 6.9729 23.625H20.9729C22.9059 23.625 24.4729 22.058 24.4729 20.125V7.875C24.4729 5.942 22.9059 4.375 20.9729 4.375Z" fill="url(#paint7_radial_354_3321)"/>
<path d="M20.9729 4.375H6.9729C5.0399 4.375 3.4729 5.942 3.4729 7.875V20.125C3.4729 22.058 5.0399 23.625 6.9729 23.625H20.9729C22.9059 23.625 24.4729 22.058 24.4729 20.125V7.875C24.4729 5.942 22.9059 4.375 20.9729 4.375Z" fill="url(#paint8_radial_354_3321)"/>
<path d="M20.9729 4.375H6.9729C5.0399 4.375 3.4729 5.942 3.4729 7.875V20.125C3.4729 22.058 5.0399 23.625 6.9729 23.625H20.9729C22.9059 23.625 24.4729 22.058 24.4729 20.125V7.875C24.4729 5.942 22.9059 4.375 20.9729 4.375Z" fill="url(#paint9_linear_354_3321)"/>
<g filter="url(#filter0_f_354_3321)">
<path d="M21.6019 9.02911H23.5427V19.5694C23.5351 19.8218 23.4295 20.0613 23.2483 20.2372C23.067 20.4131 22.8244 20.5115 22.5719 20.5115C22.3193 20.5115 22.0767 20.4131 21.8955 20.2372C21.7143 20.0613 21.6087 19.8218 21.6011 19.5694V9.02999L21.6019 9.02911Z" fill="url(#paint10_linear_354_3321)" fill-opacity="0.75"/>
</g>
<g filter="url(#filter1_f_354_3321)">
<path d="M22.9415 18.7906L17.0379 6.57563C16.9545 6.40287 16.9181 6.21121 16.9322 6.0199C16.9463 5.82859 17.0104 5.64435 17.1182 5.48567C17.226 5.32699 17.3736 5.19945 17.5463 5.11585C17.719 5.03226 17.9106 4.99554 18.1019 5.00938L20.1476 5.15813C20.6691 5.19589 21.1778 5.33711 21.6441 5.57357C22.1104 5.81003 22.525 6.13699 22.8636 6.53536C23.2022 6.93374 23.458 7.39556 23.6162 7.89388C23.7744 8.39219 23.8318 8.91703 23.785 9.43776L22.9415 18.7906Z" fill="#D89475"/>
</g>
<path d="M21.0272 19.1135C21.0272 15.1979 17.2542 13.9729 14.0272 13.9729C10.4178 13.9729 6.9729 15.3396 6.9729 19.1135C6.9729 22.5697 10.7459 25.5386 14.0272 25.5386C17.9647 25.5386 21.0272 21.4646 21.0272 19.1135Z" fill="url(#paint11_radial_354_3321)"/>
<path d="M21.0272 19.1135C21.0272 15.1979 17.2542 13.9729 14.0272 13.9729C10.4178 13.9729 6.9729 15.3396 6.9729 19.1135C6.9729 22.5697 10.7459 25.5386 14.0272 25.5386C17.9647 25.5386 21.0272 21.4646 21.0272 19.1135Z" fill="url(#paint12_radial_354_3321)"/>
<path d="M21.0272 19.1135C21.0272 15.1979 17.2542 13.9729 14.0272 13.9729C10.4178 13.9729 6.9729 15.3396 6.9729 19.1135C6.9729 22.5697 10.7459 25.5386 14.0272 25.5386C17.9647 25.5386 21.0272 21.4646 21.0272 19.1135Z" fill="url(#paint13_radial_354_3321)"/>
<g filter="url(#filter2_i_354_3321)">
<path d="M11.3401 21.574L13.973 19.6053L16.605 21.574V23.625C16.605 25.0749 15.4228 26.25 13.973 26.25C13.2761 26.2502 12.6075 25.974 12.1141 25.4818C11.6206 24.9897 11.3426 24.3219 11.341 23.625V21.574H11.3401Z" fill="url(#paint14_linear_354_3321)"/>
</g>
<g filter="url(#filter3_f_354_3321)">
<path d="M13.6447 19.6053V26.0995C15.8908 25.9901 16.4613 24.1176 16.4613 23.3923V21.4113C14.8067 21.0831 13.894 20.0708 13.6438 19.6061L13.6447 19.6053Z" fill="url(#paint15_linear_354_3321)"/>
</g>
<g filter="url(#filter4_f_354_3321)">
<path d="M14.5451 20.034L13.9729 19.6053L13.3875 20.0428C13.0428 20.9029 12.3235 21.0639 11.6926 21.1934V21.9721C12.5326 21.8908 13.461 21.5758 13.9676 20.5809C14.4778 21.5784 15.4114 21.8934 16.2523 21.9721V21.1951C15.617 21.0683 14.8899 20.9038 14.546 20.034H14.5451Z" fill="#BD1836"/>
</g>
<path d="M10.9375 20.986C10.8215 20.986 10.7102 21.0321 10.6281 21.1141C10.5461 21.1962 10.5 21.3075 10.5 21.4235C10.5 21.5395 10.5461 21.6508 10.6281 21.7329C10.7102 21.8149 10.8215 21.861 10.9375 21.861V20.986ZM14.4104 17.9515C14.4104 17.8355 14.3643 17.7242 14.2822 17.6421C14.2002 17.5601 14.0889 17.514 13.9729 17.514C13.8568 17.514 13.7456 17.5601 13.6635 17.6421C13.5815 17.7242 13.5354 17.8355 13.5354 17.9515H14.4104ZM10.9375 21.861C12.4329 21.861 14.4104 20.5625 14.4104 17.9515H13.5354C13.5354 20.0428 11.9857 20.986 10.9375 20.986V21.861Z" fill="url(#paint16_radial_354_3321)"/>
<path d="M10.9375 20.986C10.8215 20.986 10.7102 21.0321 10.6281 21.1141C10.5461 21.1962 10.5 21.3075 10.5 21.4235C10.5 21.5395 10.5461 21.6508 10.6281 21.7329C10.7102 21.8149 10.8215 21.861 10.9375 21.861V20.986ZM14.4104 17.9515C14.4104 17.8355 14.3643 17.7242 14.2822 17.6421C14.2002 17.5601 14.0889 17.514 13.9729 17.514C13.8568 17.514 13.7456 17.5601 13.6635 17.6421C13.5815 17.7242 13.5354 17.8355 13.5354 17.9515H14.4104ZM10.9375 21.861C12.4329 21.861 14.4104 20.5625 14.4104 17.9515H13.5354C13.5354 20.0428 11.9857 20.986 10.9375 20.986V21.861Z" fill="url(#paint17_linear_354_3321)"/>
<path d="M16.9978 21.4235C15.7264 21.4235 13.9624 20.3035 13.9624 17.9515" stroke="url(#paint18_radial_354_3321)" stroke-linecap="round"/>
<path d="M16.9978 21.4235C15.7264 21.4235 13.9624 20.3035 13.9624 17.9515" stroke="url(#paint19_linear_354_3321)" stroke-linecap="round"/>
<path d="M14.4149 17.9515C14.4149 17.8355 14.3688 17.7242 14.2867 17.6421C14.2047 17.5601 14.0934 17.514 13.9774 17.514H13.9677C13.8517 17.514 13.7404 17.5601 13.6584 17.6421C13.5763 17.7242 13.5302 17.8355 13.5302 17.9515C13.5302 18.0233 13.532 18.0941 13.5346 18.1641C13.4331 20.1075 11.9544 20.986 10.9429 20.986C10.8268 20.986 10.7156 21.0321 10.6335 21.1141C10.5515 21.1962 10.5054 21.3075 10.5054 21.4235C10.5054 21.5395 10.5515 21.6508 10.6335 21.7329C10.7156 21.8149 10.8268 21.861 10.9429 21.861C12.0016 21.861 13.3045 21.2083 13.973 19.8993C14.6415 21.2083 15.9435 21.861 17.0031 21.861C17.1192 21.861 17.2304 21.8149 17.3125 21.7329C17.3945 21.6508 17.4406 21.5395 17.4406 21.4235C17.4406 21.3075 17.3945 21.1962 17.3125 21.1141C17.2304 21.0321 17.1192 20.986 17.0031 20.986C15.9916 20.986 14.512 20.1075 14.4105 18.1641C14.4135 18.0933 14.4149 18.0224 14.4149 17.9515Z" fill="url(#paint20_radial_354_3321)"/>
<path d="M3.84562 14.3167L10.2331 5.30862C10.3492 5.14493 10.418 4.95246 10.432 4.75229C10.446 4.55212 10.4046 4.35195 10.3125 4.1737C10.2203 3.99545 10.0809 3.84599 9.90951 3.74167C9.7381 3.63735 9.54129 3.5822 9.34063 3.58224H5.79688C4.75259 3.58224 3.75107 3.99709 3.01264 4.73551C2.27422 5.47394 1.85938 6.47546 1.85938 7.51974V13.6841C1.85938 14.7499 3.22875 15.1856 3.84562 14.3167Z" fill="url(#paint21_linear_354_3321)"/>
<path d="M3.84562 14.3167L10.2331 5.30862C10.3492 5.14493 10.418 4.95246 10.432 4.75229C10.446 4.55212 10.4046 4.35195 10.3125 4.1737C10.2203 3.99545 10.0809 3.84599 9.90951 3.74167C9.7381 3.63735 9.54129 3.5822 9.34063 3.58224H5.79688C4.75259 3.58224 3.75107 3.99709 3.01264 4.73551C2.27422 5.47394 1.85938 6.47546 1.85938 7.51974V13.6841C1.85938 14.7499 3.22875 15.1856 3.84562 14.3167Z" fill="url(#paint22_linear_354_3321)"/>
<path d="M3.84562 14.3167L10.2331 5.30862C10.3492 5.14493 10.418 4.95246 10.432 4.75229C10.446 4.55212 10.4046 4.35195 10.3125 4.1737C10.2203 3.99545 10.0809 3.84599 9.90951 3.74167C9.7381 3.63735 9.54129 3.5822 9.34063 3.58224H5.79688C4.75259 3.58224 3.75107 3.99709 3.01264 4.73551C2.27422 5.47394 1.85938 6.47546 1.85938 7.51974V13.6841C1.85938 14.7499 3.22875 15.1856 3.84562 14.3167Z" fill="url(#paint23_linear_354_3321)"/>
<path d="M3.84562 14.3167L10.2331 5.30862C10.3492 5.14493 10.418 4.95246 10.432 4.75229C10.446 4.55212 10.4046 4.35195 10.3125 4.1737C10.2203 3.99545 10.0809 3.84599 9.90951 3.74167C9.7381 3.63735 9.54129 3.5822 9.34063 3.58224H5.79688C4.75259 3.58224 3.75107 3.99709 3.01264 4.73551C2.27422 5.47394 1.85938 6.47546 1.85938 7.51974V13.6841C1.85938 14.7499 3.22875 15.1856 3.84562 14.3167Z" fill="url(#paint24_linear_354_3321)"/>
<path d="M3.84562 14.3167L10.2331 5.30862C10.3492 5.14493 10.418 4.95246 10.432 4.75229C10.446 4.55212 10.4046 4.35195 10.3125 4.1737C10.2203 3.99545 10.0809 3.84599 9.90951 3.74167C9.7381 3.63735 9.54129 3.5822 9.34063 3.58224H5.79688C4.75259 3.58224 3.75107 3.99709 3.01264 4.73551C2.27422 5.47394 1.85938 6.47546 1.85938 7.51974V13.6841C1.85938 14.7499 3.22875 15.1856 3.84562 14.3167Z" fill="url(#paint25_radial_354_3321)"/>
<path d="M24.0729 14.3167L17.6854 5.30862C17.5693 5.14493 17.5005 4.95246 17.4866 4.75229C17.4726 4.55212 17.5139 4.35195 17.606 4.1737C17.6982 3.99545 17.8376 3.84599 18.009 3.74167C18.1804 3.63735 18.3772 3.5822 18.5779 3.58224H22.1217C23.1659 3.58224 24.1675 3.99709 24.9059 4.73551C25.6443 5.47394 26.0592 6.47546 26.0592 7.51974V13.6841C26.0592 14.7499 24.6889 15.1856 24.0729 14.3167Z" fill="url(#paint26_linear_354_3321)"/>
<path d="M24.0729 14.3167L17.6854 5.30862C17.5693 5.14493 17.5005 4.95246 17.4866 4.75229C17.4726 4.55212 17.5139 4.35195 17.606 4.1737C17.6982 3.99545 17.8376 3.84599 18.009 3.74167C18.1804 3.63735 18.3772 3.5822 18.5779 3.58224H22.1217C23.1659 3.58224 24.1675 3.99709 24.9059 4.73551C25.6443 5.47394 26.0592 6.47546 26.0592 7.51974V13.6841C26.0592 14.7499 24.6889 15.1856 24.0729 14.3167Z" fill="url(#paint27_linear_354_3321)"/>
<path d="M24.0729 14.3167L17.6854 5.30862C17.5693 5.14493 17.5005 4.95246 17.4866 4.75229C17.4726 4.55212 17.5139 4.35195 17.606 4.1737C17.6982 3.99545 17.8376 3.84599 18.009 3.74167C18.1804 3.63735 18.3772 3.5822 18.5779 3.58224H22.1217C23.1659 3.58224 24.1675 3.99709 24.9059 4.73551C25.6443 5.47394 26.0592 6.47546 26.0592 7.51974V13.6841C26.0592 14.7499 24.6889 15.1856 24.0729 14.3167Z" fill="url(#paint28_linear_354_3321)"/>
<path d="M24.0729 14.3167L17.6854 5.30862C17.5693 5.14493 17.5005 4.95246 17.4866 4.75229C17.4726 4.55212 17.5139 4.35195 17.606 4.1737C17.6982 3.99545 17.8376 3.84599 18.009 3.74167C18.1804 3.63735 18.3772 3.5822 18.5779 3.58224H22.1217C23.1659 3.58224 24.1675 3.99709 24.9059 4.73551C25.6443 5.47394 26.0592 6.47546 26.0592 7.51974V13.6841C26.0592 14.7499 24.6889 15.1856 24.0729 14.3167Z" fill="url(#paint29_radial_354_3321)"/>
<g filter="url(#filter5_f_354_3321)">
<path d="M10.9374 10.7004H10.9365C10.5799 10.7004 10.2908 10.9895 10.2908 11.3461V12.6595C10.2908 13.0161 10.5799 13.3053 10.9365 13.3053H10.9374C11.294 13.3053 11.5831 13.0161 11.5831 12.6595V11.3461C11.5831 10.9895 11.294 10.7004 10.9374 10.7004Z" fill="#DC9868"/>
</g>
<path d="M11.3454 10.5088H11.3445C10.9878 10.5088 10.6987 10.7979 10.6987 11.1545V12.4679C10.6987 12.8245 10.9878 13.1136 11.3445 13.1136H11.3454C11.702 13.1136 11.9911 12.8245 11.9911 12.4679V11.1545C11.9911 10.7979 11.702 10.5088 11.3454 10.5088Z" fill="url(#paint30_linear_354_3321)"/>
<path d="M11.3454 10.5088H11.3445C10.9878 10.5088 10.6987 10.7979 10.6987 11.1545V12.4679C10.6987 12.8245 10.9878 13.1136 11.3445 13.1136H11.3454C11.702 13.1136 11.9911 12.8245 11.9911 12.4679V11.1545C11.9911 10.7979 11.702 10.5088 11.3454 10.5088Z" fill="url(#paint31_linear_354_3321)"/>
<g filter="url(#filter6_f_354_3321)">
<path d="M11.5684 10.9051V12.2999" stroke="#725F62" stroke-width="0.2" stroke-linecap="round"/>
</g>
<path d="M16.5812 10.5088H16.5803C16.2237 10.5088 15.9346 10.7979 15.9346 11.1545V12.4679C15.9346 12.8245 16.2237 13.1136 16.5803 13.1136H16.5812C16.9378 13.1136 17.2269 12.8245 17.2269 12.4679V11.1545C17.2269 10.7979 16.9378 10.5088 16.5812 10.5088Z" fill="url(#paint32_linear_354_3321)"/>
<path d="M16.5812 10.5088H16.5803C16.2237 10.5088 15.9346 10.7979 15.9346 11.1545V12.4679C15.9346 12.8245 16.2237 13.1136 16.5803 13.1136H16.5812C16.9378 13.1136 17.2269 12.8245 17.2269 12.4679V11.1545C17.2269 10.7979 16.9378 10.5088 16.5812 10.5088Z" fill="url(#paint33_linear_354_3321)"/>
<g filter="url(#filter7_f_354_3321)">
<path d="M16.8044 10.9051V12.2999" stroke="#725F62" stroke-width="0.2" stroke-linecap="round"/>
</g>
<path d="M14.8487 14.8732H13.1801C13.0472 14.8731 12.917 14.9108 12.8048 14.982C12.6925 15.0531 12.6028 15.1547 12.5462 15.275C12.4896 15.3952 12.4684 15.529 12.485 15.6609C12.5016 15.7927 12.5555 15.9171 12.6402 16.0195L13.2308 16.7335C13.3319 16.8557 13.4594 16.9534 13.6036 17.0192C13.7479 17.0851 13.9052 17.1174 14.0637 17.1138C14.2223 17.1102 14.3779 17.0707 14.519 16.9983C14.6601 16.9259 14.783 16.8225 14.8784 16.6959L15.4078 15.995C15.4863 15.891 15.5342 15.7672 15.5462 15.6374C15.5581 15.5077 15.5336 15.3771 15.4754 15.2606C15.4172 15.144 15.3276 15.046 15.2168 14.9775C15.1059 14.9091 14.9781 14.873 14.8478 14.8732H14.8487Z" fill="url(#paint34_linear_354_3321)"/>
<path d="M14.8487 14.8732H13.1801C13.0472 14.8731 12.917 14.9108 12.8048 14.982C12.6925 15.0531 12.6028 15.1547 12.5462 15.275C12.4896 15.3952 12.4684 15.529 12.485 15.6609C12.5016 15.7927 12.5555 15.9171 12.6402 16.0195L13.2308 16.7335C13.3319 16.8557 13.4594 16.9534 13.6036 17.0192C13.7479 17.0851 13.9052 17.1174 14.0637 17.1138C14.2223 17.1102 14.3779 17.0707 14.519 16.9983C14.6601 16.9259 14.783 16.8225 14.8784 16.6959L15.4078 15.995C15.4863 15.891 15.5342 15.7672 15.5462 15.6374C15.5581 15.5077 15.5336 15.3771 15.4754 15.2606C15.4172 15.144 15.3276 15.046 15.2168 14.9775C15.1059 14.9091 14.9781 14.873 14.8478 14.8732H14.8487Z" fill="url(#paint35_radial_354_3321)"/>
<path d="M14.8487 14.8732H13.1801C13.0472 14.8731 12.917 14.9108 12.8048 14.982C12.6925 15.0531 12.6028 15.1547 12.5462 15.275C12.4896 15.3952 12.4684 15.529 12.485 15.6609C12.5016 15.7927 12.5555 15.9171 12.6402 16.0195L13.2308 16.7335C13.3319 16.8557 13.4594 16.9534 13.6036 17.0192C13.7479 17.0851 13.9052 17.1174 14.0637 17.1138C14.2223 17.1102 14.3779 17.0707 14.519 16.9983C14.6601 16.9259 14.783 16.8225 14.8784 16.6959L15.4078 15.995C15.4863 15.891 15.5342 15.7672 15.5462 15.6374C15.5581 15.5077 15.5336 15.3771 15.4754 15.2606C15.4172 15.144 15.3276 15.046 15.2168 14.9775C15.1059 14.9091 14.9781 14.873 14.8478 14.8732H14.8487Z" fill="url(#paint36_linear_354_3321)"/>
<g filter="url(#filter8_f_354_3321)">
<path d="M15.1897 15.6817C15.2672 15.6119 15.2331 15.4476 15.1135 15.3147C14.9939 15.1818 14.834 15.1307 14.7564 15.2005C14.6789 15.2704 14.713 15.4347 14.8326 15.5676C14.9522 15.7005 15.1121 15.7516 15.1897 15.6817Z" fill="#786366"/>
</g>
<g filter="url(#filter9_f_354_3321)">
<path d="M25.2656 6.37613V13.5949" stroke="url(#paint37_linear_354_3321)" stroke-width="0.2"/>
</g>
<g filter="url(#filter10_f_354_3321)">
<path d="M9.87098 4.79062L6.74023 9.30124" stroke="url(#paint38_linear_354_3321)" stroke-width="0.2"/>
</g>
<defs>
<filter id="filter0_f_354_3321" x="19.1011" y="6.52911" width="6.94165" height="16.4824" filterUnits="userSpaceOnUse" color-interpolation-filters="sRGB">
<feFlood flood-opacity="0" result="BackgroundImageFix"/>
<feBlend mode="normal" in="SourceGraphic" in2="BackgroundImageFix" result="shape"/>
<feGaussianBlur stdDeviation="1.25" result="effect1_foregroundBlur_354_3321"/>
</filter>
<filter id="filter1_f_354_3321" x="14.9292" y="3.00653" width="10.8716" height="17.7841" filterUnits="userSpaceOnUse" color-interpolation-filters="sRGB">
<feFlood flood-opacity="0" result="BackgroundImageFix"/>
<feBlend mode="normal" in="SourceGraphic" in2="BackgroundImageFix" result="shape"/>
<feGaussianBlur stdDeviation="1" result="effect1_foregroundBlur_354_3321"/>
</filter>
<filter id="filter2_i_354_3321" x="11.3401" y="19.1053" width="5.26489" height="7.14474" filterUnits="userSpaceOnUse" color-interpolation-filters="sRGB">
<feFlood flood-opacity="0" result="BackgroundImageFix"/>
<feBlend mode="normal" in="SourceGraphic" in2="BackgroundImageFix" result="shape"/>
<feColorMatrix in="SourceAlpha" type="matrix" values="0 0 0 0 0 0 0 0 0 0 0 0 0 0 0 0 0 0 127 0" result="hardAlpha"/>
<feOffset dy="-0.5"/>
<feGaussianBlur stdDeviation="0.25"/>
<feComposite in2="hardAlpha" operator="arithmetic" k2="-1" k3="1"/>
<feColorMatrix type="matrix" values="0 0 0 0 0.841667 0 0 0 0 0.164826 0 0 0 0 0.552771 0 0 0 1 0"/>
<feBlend mode="normal" in2="shape" result="effect1_innerShadow_354_3321"/>
</filter>
<filter id="filter3_f_354_3321" x="13.2438" y="19.2053" width="3.61738" height="7.29426" filterUnits="userSpaceOnUse" color-interpolation-filters="sRGB">
<feFlood flood-opacity="0" result="BackgroundImageFix"/>
<feBlend mode="normal" in="SourceGraphic" in2="BackgroundImageFix" result="shape"/>
<feGaussianBlur stdDeviation="0.2" result="effect1_foregroundBlur_354_3321"/>
</filter>
<filter id="filter4_f_354_3321" x="11.1926" y="19.1053" width="5.55957" height="3.36688" filterUnits="userSpaceOnUse" color-interpolation-filters="sRGB">
<feFlood flood-opacity="0" result="BackgroundImageFix"/>
<feBlend mode="normal" in="SourceGraphic" in2="BackgroundImageFix" result="shape"/>
<feGaussianBlur stdDeviation="0.25" result="effect1_foregroundBlur_354_3321"/>
</filter>
<filter id="filter5_f_354_3321" x="9.49077" y="9.90038" width="2.89248" height="4.20489" filterUnits="userSpaceOnUse" color-interpolation-filters="sRGB">
<feFlood flood-opacity="0" result="BackgroundImageFix"/>
<feBlend mode="normal" in="SourceGraphic" in2="BackgroundImageFix" result="shape"/>
<feGaussianBlur stdDeviation="0.4" result="effect1_foregroundBlur_354_3321"/>
</filter>
<filter id="filter6_f_354_3321" x="11.1683" y="10.5051" width="0.800195" height="2.19476" filterUnits="userSpaceOnUse" color-interpolation-filters="sRGB">
<feFlood flood-opacity="0" result="BackgroundImageFix"/>
<feBlend mode="normal" in="SourceGraphic" in2="BackgroundImageFix" result="shape"/>
<feGaussianBlur stdDeviation="0.15" result="effect1_foregroundBlur_354_3321"/>
</filter>
<filter id="filter7_f_354_3321" x="16.4043" y="10.5051" width="0.800195" height="2.19476" filterUnits="userSpaceOnUse" color-interpolation-filters="sRGB">
<feFlood flood-opacity="0" result="BackgroundImageFix"/>
<feBlend mode="normal" in="SourceGraphic" in2="BackgroundImageFix" result="shape"/>
<feGaussianBlur stdDeviation="0.15" result="effect1_foregroundBlur_354_3321"/>
</filter>
<filter id="filter8_f_354_3321" x="14.2148" y="14.6693" width="1.51636" height="1.54373" filterUnits="userSpaceOnUse" color-interpolation-filters="sRGB">
<feFlood flood-opacity="0" result="BackgroundImageFix"/>
<feBlend mode="normal" in="SourceGraphic" in2="BackgroundImageFix" result="shape"/>
<feGaussianBlur stdDeviation="0.25" result="effect1_foregroundBlur_354_3321"/>
</filter>
<filter id="filter9_f_354_3321" x="24.4155" y="5.62613" width="1.7002" height="8.71875" filterUnits="userSpaceOnUse" color-interpolation-filters="sRGB">
<feFlood flood-opacity="0" result="BackgroundImageFix"/>
<feBlend mode="normal" in="SourceGraphic" in2="BackgroundImageFix" result="shape"/>
<feGaussianBlur stdDeviation="0.375" result="effect1_foregroundBlur_354_3321"/>
</filter>
<filter id="filter10_f_354_3321" x="6.1582" y="4.23361" width="4.29492" height="5.62466" filterUnits="userSpaceOnUse" color-interpolation-filters="sRGB">
<feFlood flood-opacity="0" result="BackgroundImageFix"/>
<feBlend mode="normal" in="SourceGraphic" in2="BackgroundImageFix" result="shape"/>
<feGaussianBlur stdDeviation="0.25" result="effect1_foregroundBlur_354_3321"/>
</filter>
<linearGradient id="paint0_linear_354_3321" x1="13.9729" y1="5.28238" x2="13.9729" y2="27.5126" gradientUnits="userSpaceOnUse">
<stop stop-color="#F7C5A1"/>
<stop offset="1" stop-color="#E28454"/>
</linearGradient>
<linearGradient id="paint1_linear_354_3321" x1="2.48853" y1="23.625" x2="6.69903" y2="23.625" gradientUnits="userSpaceOnUse">
<stop stop-color="#BD8465"/>
<stop offset="1" stop-color="#BD8465" stop-opacity="0"/>
</linearGradient>
<linearGradient id="paint2_linear_354_3321" x1="27.8084" y1="23.625" x2="21.1365" y2="23.625" gradientUnits="userSpaceOnUse">
<stop stop-color="#FFC390"/>
<stop offset="1" stop-color="#FFC390" stop-opacity="0"/>
</linearGradient>
<linearGradient id="paint3_linear_354_3321" x1="13.9729" y1="18.6261" x2="13.9729" y2="27.5406" gradientUnits="userSpaceOnUse">
<stop stop-color="#89254F" stop-opacity="0"/>
<stop offset="1" stop-color="#98335E"/>
</linearGradient>
<linearGradient id="paint4_linear_354_3321" x1="13.9729" y1="23.2199" x2="13.9729" y2="23.9041" gradientUnits="userSpaceOnUse">
<stop stop-color="#E273A2" stop-opacity="0"/>
<stop offset="1" stop-color="#E273A2"/>
</linearGradient>
<radialGradient id="paint5_radial_354_3321" cx="0" cy="0" r="1" gradientUnits="userSpaceOnUse" gradientTransform="translate(1.77803 10.6426) rotate(76.072) scale(7.04301 6.29418)">
<stop stop-color="#BD8465"/>
<stop offset="1" stop-color="#BD8465" stop-opacity="0"/>
</radialGradient>
<radialGradient id="paint6_radial_354_3321" cx="0" cy="0" r="1" gradientUnits="userSpaceOnUse" gradientTransform="translate(13.9729 20.1574) rotate(180) scale(9.46094 7.25149)">
<stop stop-color="#AD5C30"/>
<stop offset="1" stop-color="#AD5C30" stop-opacity="0"/>
</radialGradient>
<radialGradient id="paint7_radial_354_3321" cx="0" cy="0" r="1" gradientUnits="userSpaceOnUse" gradientTransform="translate(12.9886 21.5791) rotate(87.745) scale(6.95069 6.07766)">
<stop stop-color="#AD5C30"/>
<stop offset="1" stop-color="#AD5C30" stop-opacity="0"/>
</radialGradient>
<radialGradient id="paint8_radial_354_3321" cx="0" cy="0" r="1" gradientUnits="userSpaceOnUse" gradientTransform="translate(10.9104 4.375) rotate(70.7479) scale(7.16993 16.4644)">
<stop stop-color="#FFD6B3"/>
<stop offset="1" stop-color="#FFC390" stop-opacity="0"/>
</radialGradient>
<linearGradient id="paint9_linear_354_3321" x1="13.2747" y1="3.26638" x2="13.2747" y2="5.61312" gradientUnits="userSpaceOnUse">
<stop stop-color="#FFE0C6"/>
<stop offset="1" stop-color="#FFC390" stop-opacity="0"/>
</linearGradient>
<linearGradient id="paint10_linear_354_3321" x1="23.9531" y1="19.0076" x2="24.3031" y2="4.15186" gradientUnits="userSpaceOnUse">
<stop stop-color="#FFC390"/>
<stop offset="1" stop-color="#FFC390" stop-opacity="0"/>
</linearGradient>
<radialGradient id="paint11_radial_354_3321" cx="0" cy="0" r="1" gradientUnits="userSpaceOnUse" gradientTransform="translate(14 16.2199) rotate(90) scale(10.1719 21.0273)">
<stop stop-color="#FFE3B6"/>
<stop offset="0.318" stop-color="#F5C19B"/>
<stop offset="0.896" stop-color="#BE625B"/>
</radialGradient>
<radialGradient id="paint12_radial_354_3321" cx="0" cy="0" r="1" gradientUnits="userSpaceOnUse" gradientTransform="translate(16.1604 17.4781) rotate(140.599) scale(11.8898 12.1662)">
<stop offset="0.595" stop-color="#BE625B" stop-opacity="0"/>
<stop offset="1" stop-color="#BE625B"/>
</radialGradient>
<radialGradient id="paint13_radial_354_3321" cx="0" cy="0" r="1" gradientUnits="userSpaceOnUse" gradientTransform="translate(20.2073 14.8531) rotate(125.776) scale(4.58365 5.9806)">
<stop stop-color="#FFE9BE"/>
<stop offset="1" stop-color="#FFE9BE" stop-opacity="0"/>
</radialGradient>
<linearGradient id="paint14_linear_354_3321" x1="12.4417" y1="18.5719" x2="12.4417" y2="24.8605" gradientUnits="userSpaceOnUse">
<stop stop-color="#B41D4E"/>
<stop offset="1" stop-color="#C9297C"/>
</linearGradient>
<linearGradient id="paint15_linear_354_3321" x1="17.7213" y1="25.8948" x2="13.6447" y2="25.9814" gradientUnits="userSpaceOnUse">
<stop offset="0.438" stop-color="#F26D9E"/>
<stop offset="0.948" stop-color="#EF6A9A" stop-opacity="0"/>
</linearGradient>
<radialGradient id="paint16_radial_354_3321" cx="0" cy="0" r="1" gradientUnits="userSpaceOnUse" gradientTransform="translate(12.4547 19.9115) rotate(48.0128) scale(1.47149 3.3429)">
<stop stop-color="#261317"/>
<stop offset="0.653" stop-color="#65484A"/>
<stop offset="1" stop-color="#3C1534"/>
</radialGradient>
<linearGradient id="paint17_linear_354_3321" x1="10.9375" y1="21.224" x2="12.5519" y2="20.8583" gradientUnits="userSpaceOnUse">
<stop stop-color="#4A3435"/>
<stop offset="1" stop-color="#473132" stop-opacity="0"/>
</linearGradient>
<radialGradient id="paint18_radial_354_3321" cx="0" cy="0" r="1" gradientUnits="userSpaceOnUse" gradientTransform="translate(15.6063 19.7684) rotate(132.556) scale(1.58691 3.80411)">
<stop stop-color="#261317"/>
<stop offset="0.508" stop-color="#65484A"/>
<stop offset="0.902" stop-color="#3C1534"/>
</radialGradient>
<linearGradient id="paint19_linear_354_3321" x1="14.1365" y1="17.0818" x2="14.5215" y2="18.4835" gradientUnits="userSpaceOnUse">
<stop stop-color="#65484A"/>
<stop offset="1" stop-color="#65484A" stop-opacity="0"/>
</linearGradient>
<radialGradient id="paint20_radial_354_3321" cx="0" cy="0" r="1" gradientUnits="userSpaceOnUse" gradientTransform="translate(12.9064 18.5308) rotate(133.995) scale(3.30678 1.66197)">
<stop stop-color="#392930"/>
<stop offset="1" stop-color="#392930" stop-opacity="0"/>
</radialGradient>
<linearGradient id="paint21_linear_354_3321" x1="6.65787" y1="3.58225" x2="2.46137" y2="13.65" gradientUnits="userSpaceOnUse">
<stop stop-color="#9F6C5B"/>
<stop offset="1" stop-color="#683C44"/>
</linearGradient>
<linearGradient id="paint22_linear_354_3321" x1="0.629125" y1="9.93124" x2="3.85525" y2="9.93124" gradientUnits="userSpaceOnUse">
<stop stop-color="#5F333B"/>
<stop offset="1" stop-color="#683C44" stop-opacity="0"/>
</linearGradient>
<linearGradient id="paint23_linear_354_3321" x1="6.97287" y1="10.9699" x2="6.01562" y2="10.2322" gradientUnits="userSpaceOnUse">
<stop offset="0.208" stop-color="#5F333B"/>
<stop offset="1" stop-color="#683C44" stop-opacity="0"/>
</linearGradient>
<linearGradient id="paint24_linear_354_3321" x1="3.28125" y1="16.0562" x2="4.43012" y2="11.0792" gradientUnits="userSpaceOnUse">
<stop stop-color="#50212A"/>
<stop offset="1" stop-color="#683C44" stop-opacity="0"/>
</linearGradient>
<radialGradient id="paint25_radial_354_3321" cx="0" cy="0" r="1" gradientUnits="userSpaceOnUse" gradientTransform="translate(9.81671 0.852952) rotate(125.218) scale(7.96582 8.44024)">
<stop stop-color="#BF867C"/>
<stop offset="1" stop-color="#BF867C" stop-opacity="0"/>
</radialGradient>
<linearGradient id="paint26_linear_354_3321" x1="21.2598" y1="3.58224" x2="25.4572" y2="13.65" gradientUnits="userSpaceOnUse">
<stop stop-color="#9F6C5B"/>
<stop offset="1" stop-color="#683C44"/>
</linearGradient>
<linearGradient id="paint27_linear_354_3321" x1="19.879" y1="11.8449" x2="22.7228" y2="9.93125" gradientUnits="userSpaceOnUse">
<stop stop-color="#5F333B"/>
<stop offset="1" stop-color="#683C44" stop-opacity="0"/>
</linearGradient>
<linearGradient id="paint28_linear_354_3321" x1="24.6364" y1="16.0562" x2="23.4884" y2="11.0792" gradientUnits="userSpaceOnUse">
<stop stop-color="#50212A"/>
<stop offset="1" stop-color="#683C44" stop-opacity="0"/>
</linearGradient>
<radialGradient id="paint29_radial_354_3321" cx="0" cy="0" r="1" gradientUnits="userSpaceOnUse" gradientTransform="translate(28.8472 9.3288) rotate(-173.904) scale(5.66485 6.00223)">
<stop stop-color="#BF867C"/>
<stop offset="1" stop-color="#BF867C" stop-opacity="0"/>
</radialGradient>
<linearGradient id="paint30_linear_354_3321" x1="12.4269" y1="11.8108" x2="10.4957" y2="11.8108" gradientUnits="userSpaceOnUse">
<stop offset="0.006" stop-color="#5F5254"/>
<stop offset="1" stop-color="#2E2127"/>
</linearGradient>
<linearGradient id="paint31_linear_354_3321" x1="10.4957" y1="13.2055" x2="10.4957" y2="12.4723" gradientUnits="userSpaceOnUse">
<stop offset="0.006" stop-color="#34222C"/>
<stop offset="1" stop-color="#34222C" stop-opacity="0"/>
</linearGradient>
<linearGradient id="paint32_linear_354_3321" x1="17.6627" y1="11.8108" x2="15.7324" y2="11.8108" gradientUnits="userSpaceOnUse">
<stop offset="0.006" stop-color="#5F5254"/>
<stop offset="1" stop-color="#2E2127"/>
</linearGradient>
<linearGradient id="paint33_linear_354_3321" x1="15.7324" y1="13.2055" x2="15.7324" y2="12.4723" gradientUnits="userSpaceOnUse">
<stop offset="0.006" stop-color="#34222C"/>
<stop offset="1" stop-color="#34222C" stop-opacity="0"/>
</linearGradient>
<linearGradient id="paint34_linear_354_3321" x1="15.2302" y1="14.6344" x2="12.6603" y2="17.2042" gradientUnits="userSpaceOnUse">
<stop offset="0.191" stop-color="#5F5254"/>
<stop offset="1" stop-color="#2E2127"/>
</linearGradient>
<radialGradient id="paint35_radial_354_3321" cx="0" cy="0" r="1" gradientUnits="userSpaceOnUse" gradientTransform="translate(14.3004 15.4265) rotate(135.864) scale(1.92405 3.54138)">
<stop offset="0.463" stop-color="#34222C" stop-opacity="0"/>
<stop offset="0.956" stop-color="#34222C"/>
</radialGradient>
<linearGradient id="paint36_linear_354_3321" x1="14.3281" y1="15.8786" x2="14.3281" y2="14.3745" gradientUnits="userSpaceOnUse">
<stop offset="0.147" stop-color="#34222C" stop-opacity="0"/>
<stop offset="0.873" stop-color="#34222C"/>
</linearGradient>
<linearGradient id="paint37_linear_354_3321" x1="nan" y1="nan" x2="nan" y2="nan" gradientUnits="userSpaceOnUse">
<stop stop-color="#B3887F"/>
<stop offset="1" stop-color="#B3887F" stop-opacity="0"/>
</linearGradient>
<linearGradient id="paint38_linear_354_3321" x1="9.85786" y1="5.65162" x2="6.46723" y2="10.6829" gradientUnits="userSpaceOnUse">
<stop stop-color="#D3B4AE"/>
<stop offset="1" stop-color="#D3B4AE" stop-opacity="0"/>
</linearGradient>
</defs>
</svg>
