<svg width="20" height="20" viewBox="0 0 20 20" fill="none" xmlns="http://www.w3.org/2000/svg">
<path d="M14.9999 14.0477C16.0374 14.4886 16.6666 15.0669 16.6666 15.7011C16.6666 17.0819 13.6816 18.2011 9.99992 18.2011C6.31825 18.2011 3.33325 17.0819 3.33325 15.7011C3.33325 15.0677 3.96242 14.4877 4.99992 14.0477" stroke="#6A67FA" stroke-width="1.5" stroke-linecap="round" stroke-linejoin="round"/>
<path d="M12.1515 11.6164C11.6481 12.319 11.1157 13.0003 10.5556 13.6584L10.5058 13.6129L10 14.1667L9.49382 13.6132L9.44489 13.658C8.88442 13.0001 8.35159 12.3191 7.84783 11.6166C7.32634 10.8832 6.80242 10.0698 6.40977 9.27585L6.40967 9.27565C6.01726 8.48281 5.75 7.70102 5.75 7.03667C5.75 4.41664 7.64967 2.41667 10 2.41667C12.3503 2.41667 14.25 4.41739 14.25 7.03667C14.25 7.70102 13.9827 8.48281 13.5903 9.27565L13.5902 9.27585C13.1974 10.0702 12.674 10.8838 12.1515 11.6164ZM10.615 14.7292L10.6146 14.7288L10.6146 14.7288L10.615 14.7292ZM10 4.25C9.35906 4.25 8.74437 4.50462 8.29116 4.95783C7.83795 5.41104 7.58333 6.02573 7.58333 6.66667C7.58333 7.30761 7.83795 7.9223 8.29116 8.37551C8.74437 8.82872 9.35906 9.08334 10 9.08334C10.6409 9.08334 11.2556 8.82872 11.7088 8.37551C12.1621 7.9223 12.4167 7.30761 12.4167 6.66667C12.4167 6.02573 12.1621 5.41104 11.7088 4.95783C11.2556 4.50462 10.6409 4.25 10 4.25Z" fill="#6A67FA" stroke="#6A67FA" stroke-width="1.5"/>
</svg>
