<svg width="27" height="25" viewBox="0 0 27 25" fill="none" xmlns="http://www.w3.org/2000/svg">
<path d="M23.4666 20.8069V3.61924C23.4666 2.36099 22.2976 1.74674 21.3403 2.63486L17.8281 6.09286C17.6646 6.25409 17.4443 6.34459 17.2147 6.34486H8.81731C8.5877 6.34459 8.36741 6.25409 8.20393 6.09286L4.69168 2.63486C3.73443 1.74586 2.56543 2.36099 2.56543 3.61924V20.8069C2.56543 22.7424 4.10543 24.3112 6.00505 24.3112H20.0269C21.9257 24.3112 23.4657 22.7424 23.4657 20.8069H23.4666Z" fill="url(#paint0_linear_354_3251)"/>
<path d="M23.4666 20.8069V3.61924C23.4666 2.36099 22.2976 1.74674 21.3403 2.63486L17.8281 6.09286C17.6646 6.25409 17.4443 6.34459 17.2147 6.34486H8.81731C8.5877 6.34459 8.36741 6.25409 8.20393 6.09286L4.69168 2.63486C3.73443 1.74586 2.56543 2.36099 2.56543 3.61924V20.8069C2.56543 22.7424 4.10543 24.3112 6.00505 24.3112H20.0269C21.9257 24.3112 23.4657 22.7424 23.4657 20.8069H23.4666Z" fill="url(#paint1_linear_354_3251)"/>
<path d="M23.4666 20.8069V3.61924C23.4666 2.36099 22.2976 1.74674 21.3403 2.63486L17.8281 6.09286C17.6646 6.25409 17.4443 6.34459 17.2147 6.34486H8.81731C8.5877 6.34459 8.36741 6.25409 8.20393 6.09286L4.69168 2.63486C3.73443 1.74586 2.56543 2.36099 2.56543 3.61924V20.8069C2.56543 22.7424 4.10543 24.3112 6.00505 24.3112H20.0269C21.9257 24.3112 23.4657 22.7424 23.4657 20.8069H23.4666Z" fill="url(#paint2_linear_354_3251)"/>
<path d="M23.4666 20.8069V3.61924C23.4666 2.36099 22.2976 1.74674 21.3403 2.63486L17.8281 6.09286C17.6646 6.25409 17.4443 6.34459 17.2147 6.34486H8.81731C8.5877 6.34459 8.36741 6.25409 8.20393 6.09286L4.69168 2.63486C3.73443 1.74586 2.56543 2.36099 2.56543 3.61924V20.8069C2.56543 22.7424 4.10543 24.3112 6.00505 24.3112H20.0269C21.9257 24.3112 23.4657 22.7424 23.4657 20.8069H23.4666Z" fill="url(#paint3_linear_354_3251)"/>
<path d="M23.4666 20.8069V3.61924C23.4666 2.36099 22.2976 1.74674 21.3403 2.63486L17.8281 6.09286C17.6646 6.25409 17.4443 6.34459 17.2147 6.34486H8.81731C8.5877 6.34459 8.36741 6.25409 8.20393 6.09286L4.69168 2.63486C3.73443 1.74586 2.56543 2.36099 2.56543 3.61924V20.8069C2.56543 22.7424 4.10543 24.3112 6.00505 24.3112H20.0269C21.9257 24.3112 23.4657 22.7424 23.4657 20.8069H23.4666Z" fill="url(#paint4_linear_354_3251)"/>
<path d="M23.4666 20.8069V3.61924C23.4666 2.36099 22.2976 1.74674 21.3403 2.63486L17.8281 6.09286C17.6646 6.25409 17.4443 6.34459 17.2147 6.34486H8.81731C8.5877 6.34459 8.36741 6.25409 8.20393 6.09286L4.69168 2.63486C3.73443 1.74586 2.56543 2.36099 2.56543 3.61924V20.8069C2.56543 22.7424 4.10543 24.3112 6.00505 24.3112H20.0269C21.9257 24.3112 23.4657 22.7424 23.4657 20.8069H23.4666Z" fill="url(#paint5_radial_354_3251)"/>
<g filter="url(#filter0_f_354_3251)">
<path d="M4.61586 17.0925H4.61499C3.95632 17.0925 3.42236 17.6265 3.42236 18.2851V19.1356C3.42236 19.7943 3.95632 20.3282 4.61499 20.3282H4.61586C5.27453 20.3282 5.80849 19.7943 5.80849 19.1356V18.2851C5.80849 17.6265 5.27453 17.0925 4.61586 17.0925Z" fill="#D67908"/>
</g>
<g filter="url(#filter1_f_354_3251)">
<path d="M17.156 6.92498C14.5459 7.01948 21.7297 11.2597 21.7297 11.2597L22.714 3.33048C22.7622 2.9271 22.3955 2.49573 21.6203 3.21585L18.1098 6.67385C17.9462 6.83485 17.7528 6.8926 17.4955 6.92585C17.3643 6.94335 17.289 6.9206 17.1578 6.92585L17.156 6.92498Z" fill="url(#paint6_linear_354_3251)"/>
</g>
<path d="M4.36615 9.81512L6.81615 7.54012C7.09615 7.27762 7.09615 6.85762 6.81615 6.60387L4.17803 4.26149C3.8429 3.96749 3.1499 4.06374 3.1499 4.79262V9.34262C3.1499 10.0724 3.9199 10.2351 4.36615 9.81512Z" fill="url(#paint7_linear_354_3251)"/>
<g filter="url(#filter2_f_354_3251)">
<path d="M22.179 2.94549C22.208 2.87414 22.2609 2.81508 22.3286 2.77839C22.3963 2.74171 22.4747 2.72967 22.5503 2.74434C22.6259 2.759 22.6941 2.79947 22.7432 2.85882C22.7923 2.91816 22.8192 2.99271 22.8195 3.06974V5.03411L21.5796 4.43299L22.1798 2.94549H22.179Z" fill="url(#paint8_linear_354_3251)"/>
</g>
<g filter="url(#filter3_f_354_3251)">
<path d="M3.76514 3.01111L6.71826 5.82861C7.37801 6.45686 7.39026 7.50686 6.74539 8.15173" stroke="#FFDF70" stroke-linecap="round"/>
</g>
<g filter="url(#filter4_f_354_3251)">
<path d="M11.9542 16.0687L12.0111 16.0556C12.4255 15.9589 12.8571 15.9634 13.2694 16.0687C13.7244 16.1545 13.9974 16.6777 13.6124 17.054L13.1311 17.5799C12.8949 17.8161 12.3751 17.8161 12.1389 17.5799L11.6637 17.054C11.2709 16.6095 11.5167 16.165 11.9542 16.0687Z" fill="url(#paint9_linear_354_3251)"/>
</g>
<path d="M12.3229 15.6811L12.3798 15.668C12.7942 15.5713 13.2257 15.5758 13.638 15.6811C14.0939 15.7669 14.366 16.2892 13.981 16.6655L13.4998 17.1922C13.2635 17.4285 12.7438 17.4285 12.5075 17.1922L12.0333 16.6655C11.6395 16.221 11.8863 15.7765 12.3238 15.6811H12.3229Z" fill="url(#paint10_radial_354_3251)"/>
<g filter="url(#filter5_f_354_3251)">
<path d="M13.2361 16.3881C13.6043 16.3881 13.9028 16.2808 13.9028 16.1484C13.9028 16.0159 13.6043 15.9086 13.2361 15.9086C12.8679 15.9086 12.5693 16.0159 12.5693 16.1484C12.5693 16.2808 12.8679 16.3881 13.2361 16.3881Z" fill="url(#paint11_linear_354_3251)"/>
</g>
<g filter="url(#filter6_f_354_3251)">
<path d="M20.687 18.0305L24.0164 16.445" stroke="url(#paint12_linear_354_3251)" stroke-width="1.2" stroke-miterlimit="10" stroke-linecap="round"/>
</g>
<g filter="url(#filter7_f_354_3251)">
<path d="M20.687 19.8085L22.3731 21.0029" stroke="url(#paint13_linear_354_3251)" stroke-width="1.2" stroke-miterlimit="10" stroke-linecap="round"/>
</g>
<path d="M21.3701 17.7225L24.6995 16.1361" stroke="url(#paint14_linear_354_3251)" stroke-width="1.2" stroke-miterlimit="10" stroke-linecap="round"/>
<g filter="url(#filter8_f_354_3251)">
<path d="M21.3701 17.8712L24.6995 16.2857" stroke="#FF8485" stroke-width="0.3" stroke-miterlimit="10" stroke-linecap="round"/>
</g>
<g filter="url(#filter9_f_354_3251)">
<path d="M24.962 16.1422C25.044 16.1079 25.0853 16.02 25.0543 15.946C25.0233 15.8721 24.9317 15.84 24.8497 15.8743C24.7676 15.9087 24.7263 15.9966 24.7573 16.0705C24.7883 16.1445 24.88 16.1766 24.962 16.1422Z" fill="#FFDD86"/>
</g>
<path d="M21.3687 19.5862L24.6945 21.177" stroke="url(#paint15_linear_354_3251)" stroke-width="1.2" stroke-miterlimit="10" stroke-linecap="round"/>
<g filter="url(#filter10_f_354_3251)">
<path d="M21.3105 19.4812L24.6373 21.072" stroke="#FF8485" stroke-width="0.3" stroke-miterlimit="10" stroke-linecap="round"/>
</g>
<g filter="url(#filter11_f_354_3251)">
<path d="M24.7794 21.2003C24.8577 21.2425 24.952 21.2194 24.9901 21.1487C25.0281 21.0781 24.9954 20.9867 24.9172 20.9445C24.8389 20.9024 24.7446 20.9255 24.7065 20.9961C24.6685 21.0667 24.7011 21.1581 24.7794 21.2003Z" fill="#FFDD86"/>
</g>
<path d="M4.71211 19.5959L1.38623 21.1875" stroke="url(#paint16_linear_354_3251)" stroke-width="1.2" stroke-miterlimit="10" stroke-linecap="round"/>
<g filter="url(#filter12_f_354_3251)">
<path d="M4.76875 19.49L1.44287 21.0825" stroke="#FF8485" stroke-width="0.3" stroke-miterlimit="10" stroke-linecap="round"/>
</g>
<g filter="url(#filter13_f_354_3251)">
<path d="M4.76698 19.5788C4.68315 19.5491 4.63687 19.4638 4.66362 19.3882C4.69037 19.3125 4.78001 19.2753 4.86384 19.3049C4.94767 19.3345 4.99394 19.4199 4.96719 19.4955C4.94045 19.5711 4.85081 19.6084 4.76698 19.5788Z" fill="#FFDD86"/>
</g>
<path d="M4.7225 17.7085L1.38525 16.1387" stroke="url(#paint17_linear_354_3251)" stroke-width="1.2" stroke-miterlimit="10" stroke-linecap="round"/>
<g filter="url(#filter14_f_354_3251)">
<path d="M4.83969 17.6866L1.50244 16.1169" stroke="#FF8485" stroke-width="0.3" stroke-miterlimit="10" stroke-linecap="round"/>
</g>
<g filter="url(#filter15_f_354_3251)">
<path d="M4.76983 17.7405C4.73976 17.6568 4.77659 17.567 4.85209 17.5399C4.92758 17.5127 5.01316 17.5586 5.04322 17.6423C5.07328 17.726 5.03646 17.8158 4.96096 17.8429C4.88547 17.87 4.79989 17.8242 4.76983 17.7405Z" fill="#FFDD86"/>
</g>
<path d="M16.8658 18.1731C16.8658 20.3081 15.1315 21.9671 12.9965 21.9671C10.8615 21.9671 9.22266 20.267 9.22266 18.132C9.22266 18.132 10.802 19.9984 12.9965 18.132C15.0545 19.9502 16.8658 18.1731 16.8658 18.1731Z" fill="url(#paint18_linear_354_3251)"/>
<g filter="url(#filter16_f_354_3251)">
<path d="M16.0032 15.9095C15.8253 15.9104 15.6541 15.8411 15.527 15.7166C15.3998 15.5921 15.327 15.4224 15.3242 15.2445V14.002C15.3242 13.6371 15.6305 13.337 16.0032 13.337C16.3751 13.337 16.6813 13.6371 16.6813 14.002V15.2445C16.6813 15.6207 16.3751 15.9095 16.0032 15.9095Z" fill="url(#paint19_linear_354_3251)"/>
</g>
<path d="M16.4735 15.5752C16.2957 15.5759 16.1248 15.5065 15.9979 15.382C15.8709 15.2575 15.7982 15.088 15.7954 14.9102V13.6669C15.7954 13.302 16.1017 13.0019 16.4744 13.0019C16.8463 13.0019 17.1525 13.302 17.1525 13.6669V14.9102C17.1525 15.2865 16.8463 15.5752 16.4744 15.5752H16.4735Z" fill="url(#paint20_linear_354_3251)"/>
<path d="M16.4735 15.5752C16.2957 15.5759 16.1248 15.5065 15.9979 15.382C15.8709 15.2575 15.7982 15.088 15.7954 14.9102V13.6669C15.7954 13.302 16.1017 13.0019 16.4744 13.0019C16.8463 13.0019 17.1525 13.302 17.1525 13.6669V14.9102C17.1525 15.2865 16.8463 15.5752 16.4744 15.5752H16.4735Z" fill="url(#paint21_linear_354_3251)"/>
<g filter="url(#filter17_f_354_3251)">
<path d="M9.1542 15.9095C8.97633 15.9104 8.80528 15.8411 8.67828 15.7165C8.55128 15.592 8.47861 15.4223 8.47607 15.2445V14.002C8.47607 13.6371 8.78232 13.337 9.1542 13.337C9.52695 13.337 9.8332 13.6371 9.8332 14.002V15.2445C9.8332 15.6207 9.52695 15.9095 9.1542 15.9095Z" fill="url(#paint22_linear_354_3251)"/>
</g>
<path d="M9.52529 15.5752C9.34742 15.5762 9.17638 15.5068 9.04938 15.3823C8.92238 15.2578 8.8497 15.0881 8.84717 14.9102V13.6669C8.84717 13.302 9.15342 13.0019 9.52529 13.0019C9.89717 13.0019 10.2034 13.302 10.2034 13.6669V14.9102C10.2034 15.2865 9.89717 15.5752 9.52529 15.5752Z" fill="url(#paint23_linear_354_3251)"/>
<path d="M9.52529 15.5752C9.34742 15.5762 9.17638 15.5068 9.04938 15.3823C8.92238 15.2578 8.8497 15.0881 8.84717 14.9102V13.6669C8.84717 13.302 9.15342 13.0019 9.52529 13.0019C9.89717 13.0019 10.2034 13.302 10.2034 13.6669V14.9102C10.2034 15.2865 9.89717 15.5752 9.52529 15.5752Z" fill="url(#paint24_linear_354_3251)"/>
<g filter="url(#filter18_f_354_3251)">
<path d="M16.6811 13.75C16.7952 13.75 16.8876 13.6575 16.8876 13.5435C16.8876 13.4294 16.7952 13.337 16.6811 13.337C16.5671 13.337 16.4746 13.4294 16.4746 13.5435C16.4746 13.6575 16.5671 13.75 16.6811 13.75Z" fill="#775B70"/>
</g>
<g filter="url(#filter19_f_354_3251)">
<path d="M9.73189 13.75C9.84594 13.75 9.93839 13.6575 9.93839 13.5435C9.93839 13.4294 9.84594 13.337 9.73189 13.337C9.61784 13.337 9.52539 13.4294 9.52539 13.5435C9.52539 13.6575 9.61784 13.75 9.73189 13.75Z" fill="#775B70"/>
</g>
<g filter="url(#filter20_f_354_3251)">
<path d="M18.3394 6.83923H22.3512V19.252H18.3394V6.83923Z" fill="url(#paint25_linear_354_3251)"/>
</g>
<path d="M21.604 9.81512L19.154 7.54012C19.0879 7.48134 19.035 7.40924 18.9988 7.32855C18.9626 7.24787 18.9438 7.16043 18.9438 7.07199C18.9438 6.98355 18.9626 6.89611 18.9988 6.81543C19.035 6.73475 19.0879 6.66264 19.154 6.60387L21.7921 4.26149C22.1264 3.96749 22.8202 4.06374 22.8202 4.79262V9.34262C22.8202 10.0724 22.0502 10.2351 21.604 9.81512Z" fill="#FFB915"/>
<path d="M21.604 9.81512L19.154 7.54012C19.0879 7.48134 19.035 7.40924 18.9988 7.32855C18.9626 7.24787 18.9438 7.16043 18.9438 7.07199C18.9438 6.98355 18.9626 6.89611 18.9988 6.81543C19.035 6.73475 19.0879 6.66264 19.154 6.60387L21.7921 4.26149C22.1264 3.96749 22.8202 4.06374 22.8202 4.79262V9.34262C22.8202 10.0724 22.0502 10.2351 21.604 9.81512Z" fill="url(#paint26_linear_354_3251)"/>
<g filter="url(#filter21_f_354_3251)">
<path d="M22.3047 4.44611L19.1328 7.18048L22.2356 9.64186L22.3047 4.44611Z" fill="url(#paint27_radial_354_3251)"/>
</g>
<g filter="url(#filter22_f_354_3251)">
<path d="M19.7612 7.00375L21.9767 9.39513" stroke="url(#paint28_linear_354_3251)" stroke-width="0.5" stroke-linecap="round"/>
</g>
<g filter="url(#filter23_f_354_3251)">
<path d="M3.57031 4.5625V9.73112L6.60569 7.02738L3.57031 4.5625Z" fill="#FEB33E"/>
</g>
<g filter="url(#filter24_f_354_3251)">
<path d="M3.57031 4.76111V9.29973" stroke="#FFE7A3" stroke-width="0.15" stroke-linecap="round"/>
</g>
<defs>
<filter id="filter0_f_354_3251" x="1.92236" y="15.5925" width="5.38623" height="6.23575" filterUnits="userSpaceOnUse" color-interpolation-filters="sRGB">
<feFlood flood-opacity="0" result="BackgroundImageFix"/>
<feBlend mode="normal" in="SourceGraphic" in2="BackgroundImageFix" result="shape"/>
<feGaussianBlur stdDeviation="0.75" result="effect1_foregroundBlur_354_3251"/>
</filter>
<filter id="filter1_f_354_3251" x="15.585" y="1.82877" width="8.1333" height="10.431" filterUnits="userSpaceOnUse" color-interpolation-filters="sRGB">
<feFlood flood-opacity="0" result="BackgroundImageFix"/>
<feBlend mode="normal" in="SourceGraphic" in2="BackgroundImageFix" result="shape"/>
<feGaussianBlur stdDeviation="0.5" result="effect1_foregroundBlur_354_3251"/>
</filter>
<filter id="filter2_f_354_3251" x="20.5796" y="1.73825" width="3.23975" height="4.29587" filterUnits="userSpaceOnUse" color-interpolation-filters="sRGB">
<feFlood flood-opacity="0" result="BackgroundImageFix"/>
<feBlend mode="normal" in="SourceGraphic" in2="BackgroundImageFix" result="shape"/>
<feGaussianBlur stdDeviation="0.5" result="effect1_foregroundBlur_354_3251"/>
</filter>
<filter id="filter3_f_354_3251" x="1.26514" y="0.511108" width="8.45605" height="10.1406" filterUnits="userSpaceOnUse" color-interpolation-filters="sRGB">
<feFlood flood-opacity="0" result="BackgroundImageFix"/>
<feBlend mode="normal" in="SourceGraphic" in2="BackgroundImageFix" result="shape"/>
<feGaussianBlur stdDeviation="1" result="effect1_foregroundBlur_354_3251"/>
</filter>
<filter id="filter4_f_354_3251" x="10.9668" y="15.4863" width="3.3291" height="2.77075" filterUnits="userSpaceOnUse" color-interpolation-filters="sRGB">
<feFlood flood-opacity="0" result="BackgroundImageFix"/>
<feBlend mode="normal" in="SourceGraphic" in2="BackgroundImageFix" result="shape"/>
<feGaussianBlur stdDeviation="0.25" result="effect1_foregroundBlur_354_3251"/>
</filter>
<filter id="filter5_f_354_3251" x="11.9693" y="15.3086" width="2.5335" height="1.67949" filterUnits="userSpaceOnUse" color-interpolation-filters="sRGB">
<feFlood flood-opacity="0" result="BackgroundImageFix"/>
<feBlend mode="normal" in="SourceGraphic" in2="BackgroundImageFix" result="shape"/>
<feGaussianBlur stdDeviation="0.3" result="effect1_foregroundBlur_354_3251"/>
</filter>
<filter id="filter6_f_354_3251" x="19.5869" y="15.3448" width="5.52979" height="3.78577" filterUnits="userSpaceOnUse" color-interpolation-filters="sRGB">
<feFlood flood-opacity="0" result="BackgroundImageFix"/>
<feBlend mode="normal" in="SourceGraphic" in2="BackgroundImageFix" result="shape"/>
<feGaussianBlur stdDeviation="0.25" result="effect1_foregroundBlur_354_3251"/>
</filter>
<filter id="filter7_f_354_3251" x="19.5869" y="18.7085" width="3.88623" height="3.39447" filterUnits="userSpaceOnUse" color-interpolation-filters="sRGB">
<feFlood flood-opacity="0" result="BackgroundImageFix"/>
<feBlend mode="normal" in="SourceGraphic" in2="BackgroundImageFix" result="shape"/>
<feGaussianBlur stdDeviation="0.25" result="effect1_foregroundBlur_354_3251"/>
</filter>
<filter id="filter8_f_354_3251" x="20.7202" y="15.6357" width="4.62939" height="2.88556" filterUnits="userSpaceOnUse" color-interpolation-filters="sRGB">
<feFlood flood-opacity="0" result="BackgroundImageFix"/>
<feBlend mode="normal" in="SourceGraphic" in2="BackgroundImageFix" result="shape"/>
<feGaussianBlur stdDeviation="0.25" result="effect1_foregroundBlur_354_3251"/>
</filter>
<filter id="filter9_f_354_3251" x="24.2471" y="15.3605" width="1.31738" height="1.2955" filterUnits="userSpaceOnUse" color-interpolation-filters="sRGB">
<feFlood flood-opacity="0" result="BackgroundImageFix"/>
<feBlend mode="normal" in="SourceGraphic" in2="BackgroundImageFix" result="shape"/>
<feGaussianBlur stdDeviation="0.25" result="effect1_foregroundBlur_354_3251"/>
</filter>
<filter id="filter10_f_354_3251" x="20.6606" y="18.8312" width="4.62646" height="2.89081" filterUnits="userSpaceOnUse" color-interpolation-filters="sRGB">
<feFlood flood-opacity="0" result="BackgroundImageFix"/>
<feBlend mode="normal" in="SourceGraphic" in2="BackgroundImageFix" result="shape"/>
<feGaussianBlur stdDeviation="0.25" result="effect1_foregroundBlur_354_3251"/>
</filter>
<filter id="filter11_f_354_3251" x="24.1904" y="20.4235" width="1.31543" height="1.29791" filterUnits="userSpaceOnUse" color-interpolation-filters="sRGB">
<feFlood flood-opacity="0" result="BackgroundImageFix"/>
<feBlend mode="normal" in="SourceGraphic" in2="BackgroundImageFix" result="shape"/>
<feGaussianBlur stdDeviation="0.25" result="effect1_foregroundBlur_354_3251"/>
</filter>
<filter id="filter12_f_354_3251" x="0.792969" y="18.84" width="4.62598" height="2.89255" filterUnits="userSpaceOnUse" color-interpolation-filters="sRGB">
<feFlood flood-opacity="0" result="BackgroundImageFix"/>
<feBlend mode="normal" in="SourceGraphic" in2="BackgroundImageFix" result="shape"/>
<feGaussianBlur stdDeviation="0.25" result="effect1_foregroundBlur_354_3251"/>
</filter>
<filter id="filter13_f_354_3251" x="4.15625" y="18.7947" width="1.31836" height="1.29425" filterUnits="userSpaceOnUse" color-interpolation-filters="sRGB">
<feFlood flood-opacity="0" result="BackgroundImageFix"/>
<feBlend mode="normal" in="SourceGraphic" in2="BackgroundImageFix" result="shape"/>
<feGaussianBlur stdDeviation="0.25" result="effect1_foregroundBlur_354_3251"/>
</filter>
<filter id="filter14_f_354_3251" x="0.852539" y="15.4668" width="4.63721" height="2.86981" filterUnits="userSpaceOnUse" color-interpolation-filters="sRGB">
<feFlood flood-opacity="0" result="BackgroundImageFix"/>
<feBlend mode="normal" in="SourceGraphic" in2="BackgroundImageFix" result="shape"/>
<feGaussianBlur stdDeviation="0.25" result="effect1_foregroundBlur_354_3251"/>
</filter>
<filter id="filter15_f_354_3251" x="4.25928" y="17.0321" width="1.29443" height="1.31863" filterUnits="userSpaceOnUse" color-interpolation-filters="sRGB">
<feFlood flood-opacity="0" result="BackgroundImageFix"/>
<feBlend mode="normal" in="SourceGraphic" in2="BackgroundImageFix" result="shape"/>
<feGaussianBlur stdDeviation="0.25" result="effect1_foregroundBlur_354_3251"/>
</filter>
<filter id="filter16_f_354_3251" x="14.8242" y="12.837" width="2.35693" height="3.57251" filterUnits="userSpaceOnUse" color-interpolation-filters="sRGB">
<feFlood flood-opacity="0" result="BackgroundImageFix"/>
<feBlend mode="normal" in="SourceGraphic" in2="BackgroundImageFix" result="shape"/>
<feGaussianBlur stdDeviation="0.25" result="effect1_foregroundBlur_354_3251"/>
</filter>
<filter id="filter17_f_354_3251" x="7.97607" y="12.837" width="2.35693" height="3.57251" filterUnits="userSpaceOnUse" color-interpolation-filters="sRGB">
<feFlood flood-opacity="0" result="BackgroundImageFix"/>
<feBlend mode="normal" in="SourceGraphic" in2="BackgroundImageFix" result="shape"/>
<feGaussianBlur stdDeviation="0.25" result="effect1_foregroundBlur_354_3251"/>
</filter>
<filter id="filter18_f_354_3251" x="15.9746" y="12.837" width="1.41309" height="1.41299" filterUnits="userSpaceOnUse" color-interpolation-filters="sRGB">
<feFlood flood-opacity="0" result="BackgroundImageFix"/>
<feBlend mode="normal" in="SourceGraphic" in2="BackgroundImageFix" result="shape"/>
<feGaussianBlur stdDeviation="0.25" result="effect1_foregroundBlur_354_3251"/>
</filter>
<filter id="filter19_f_354_3251" x="9.02539" y="12.837" width="1.41309" height="1.41299" filterUnits="userSpaceOnUse" color-interpolation-filters="sRGB">
<feFlood flood-opacity="0" result="BackgroundImageFix"/>
<feBlend mode="normal" in="SourceGraphic" in2="BackgroundImageFix" result="shape"/>
<feGaussianBlur stdDeviation="0.25" result="effect1_foregroundBlur_354_3251"/>
</filter>
<filter id="filter20_f_354_3251" x="14.3394" y="2.83923" width="12.0117" height="20.4128" filterUnits="userSpaceOnUse" color-interpolation-filters="sRGB">
<feFlood flood-opacity="0" result="BackgroundImageFix"/>
<feBlend mode="normal" in="SourceGraphic" in2="BackgroundImageFix" result="shape"/>
<feGaussianBlur stdDeviation="2" result="effect1_foregroundBlur_354_3251"/>
</filter>
<filter id="filter21_f_354_3251" x="18.5328" y="3.84611" width="4.37188" height="6.39574" filterUnits="userSpaceOnUse" color-interpolation-filters="sRGB">
<feFlood flood-opacity="0" result="BackgroundImageFix"/>
<feBlend mode="normal" in="SourceGraphic" in2="BackgroundImageFix" result="shape"/>
<feGaussianBlur stdDeviation="0.3" result="effect1_foregroundBlur_354_3251"/>
</filter>
<filter id="filter22_f_354_3251" x="18.7612" y="6.00375" width="4.21533" height="4.39139" filterUnits="userSpaceOnUse" color-interpolation-filters="sRGB">
<feFlood flood-opacity="0" result="BackgroundImageFix"/>
<feBlend mode="normal" in="SourceGraphic" in2="BackgroundImageFix" result="shape"/>
<feGaussianBlur stdDeviation="0.375" result="effect1_foregroundBlur_354_3251"/>
</filter>
<filter id="filter23_f_354_3251" x="3.07031" y="4.0625" width="4.03516" height="6.16864" filterUnits="userSpaceOnUse" color-interpolation-filters="sRGB">
<feFlood flood-opacity="0" result="BackgroundImageFix"/>
<feBlend mode="normal" in="SourceGraphic" in2="BackgroundImageFix" result="shape"/>
<feGaussianBlur stdDeviation="0.25" result="effect1_foregroundBlur_354_3251"/>
</filter>
<filter id="filter24_f_354_3251" x="2.99512" y="4.1861" width="1.15039" height="5.68863" filterUnits="userSpaceOnUse" color-interpolation-filters="sRGB">
<feFlood flood-opacity="0" result="BackgroundImageFix"/>
<feBlend mode="normal" in="SourceGraphic" in2="BackgroundImageFix" result="shape"/>
<feGaussianBlur stdDeviation="0.25" result="effect1_foregroundBlur_354_3251"/>
</filter>
<linearGradient id="paint0_linear_354_3251" x1="5.96831" y1="-1.01126" x2="5.96831" y2="25.1862" gradientUnits="userSpaceOnUse">
<stop offset="0.288" stop-color="#F2CC26"/>
<stop offset="0.762" stop-color="#E99E20"/>
<stop offset="0.993" stop-color="#E3821D"/>
<stop offset="1" stop-color="#E3801D"/>
</linearGradient>
<linearGradient id="paint1_linear_354_3251" x1="6.77331" y1="8.43174" x2="0.10143" y2="8.43174" gradientUnits="userSpaceOnUse">
<stop stop-color="#E99E20" stop-opacity="0"/>
<stop offset="0.993" stop-color="#E3821D"/>
<stop offset="1" stop-color="#E3801D"/>
</linearGradient>
<linearGradient id="paint2_linear_354_3251" x1="22.4139" y1="8.43174" x2="25.4213" y2="8.43174" gradientUnits="userSpaceOnUse">
<stop stop-color="#E99E20" stop-opacity="0"/>
<stop offset="0.993" stop-color="#E3821D"/>
<stop offset="1" stop-color="#E3801D"/>
</linearGradient>
<linearGradient id="paint3_linear_354_3251" x1="13.0173" y1="-3.61351" x2="13.0164" y2="25.1862" gradientUnits="userSpaceOnUse">
<stop offset="0.771" stop-color="#F59639" stop-opacity="0"/>
<stop offset="1" stop-color="#FF63C4"/>
</linearGradient>
<linearGradient id="paint4_linear_354_3251" x1="13.0164" y1="7.74136" x2="13.0164" y2="26.4987" gradientUnits="userSpaceOnUse">
<stop offset="0.854" stop-color="white" stop-opacity="0"/>
<stop offset="0.985" stop-color="white"/>
</linearGradient>
<radialGradient id="paint5_radial_354_3251" cx="0" cy="0" r="1" gradientUnits="userSpaceOnUse" gradientTransform="translate(18.3933 1.75374) rotate(55.85) scale(4.72485 9.3366)">
<stop stop-color="#FFA720"/>
<stop offset="0.921" stop-color="#FFA720" stop-opacity="0"/>
</radialGradient>
<linearGradient id="paint6_linear_354_3251" x1="18.1693" y1="3.99548" x2="23.6442" y2="9.9831" gradientUnits="userSpaceOnUse">
<stop stop-color="#FFA720"/>
<stop offset="1" stop-color="#FFA720" stop-opacity="0"/>
</linearGradient>
<linearGradient id="paint7_linear_354_3251" x1="8.27653" y1="7.28987" x2="3.1499" y2="6.81124" gradientUnits="userSpaceOnUse">
<stop offset="0.437" stop-color="#ED8C1B"/>
<stop offset="1" stop-color="#FFB03A"/>
</linearGradient>
<linearGradient id="paint8_linear_354_3251" x1="22.6602" y1="2.34086" x2="22.1387" y2="4.38924" gradientUnits="userSpaceOnUse">
<stop offset="0.286" stop-color="#FFE792"/>
<stop offset="1" stop-color="#FFDD65" stop-opacity="0"/>
</linearGradient>
<linearGradient id="paint9_linear_354_3251" x1="12.782" y1="17.5571" x2="12.194" y2="18.5144" gradientUnits="userSpaceOnUse">
<stop stop-color="#E3900E"/>
<stop offset="1" stop-color="#EA9D26" stop-opacity="0"/>
</linearGradient>
<radialGradient id="paint10_radial_354_3251" cx="0" cy="0" r="1" gradientUnits="userSpaceOnUse" gradientTransform="translate(13.3904 16.5325) rotate(-153.246) scale(1.85263 1.86358)">
<stop stop-color="#EA088B"/>
<stop offset="1" stop-color="#E61E27"/>
</radialGradient>
<linearGradient id="paint11_linear_354_3251" x1="14.0533" y1="16.1484" x2="12.7198" y2="16.1484" gradientUnits="userSpaceOnUse">
<stop stop-color="white" stop-opacity="0.9"/>
<stop offset="1" stop-color="white" stop-opacity="0"/>
</linearGradient>
<linearGradient id="paint12_linear_354_3251" x1="20.2539" y1="18.3315" x2="23.5211" y2="16.655" gradientUnits="userSpaceOnUse">
<stop stop-color="#E88105"/>
<stop offset="1" stop-color="#E37D02" stop-opacity="0"/>
</linearGradient>
<linearGradient id="paint13_linear_354_3251" x1="20.2539" y1="19.5075" x2="23.5211" y2="21.1831" gradientUnits="userSpaceOnUse">
<stop offset="0.286" stop-color="#DE7D07"/>
<stop offset="0.818" stop-color="#E37D02" stop-opacity="0"/>
</linearGradient>
<linearGradient id="paint14_linear_354_3251" x1="21.1286" y1="18.0769" x2="24.6995" y2="16.382" gradientUnits="userSpaceOnUse">
<stop offset="0.156" stop-color="#D64A38"/>
<stop offset="1" stop-color="#FB7425"/>
</linearGradient>
<linearGradient id="paint15_linear_354_3251" x1="20.9399" y1="19.6212" x2="24.5029" y2="21.3319" gradientUnits="userSpaceOnUse">
<stop offset="0.156" stop-color="#D64A38"/>
<stop offset="1" stop-color="#FB7425"/>
</linearGradient>
<linearGradient id="paint16_linear_354_3251" x1="5.14086" y1="19.6309" x2="1.57698" y2="21.3424" gradientUnits="userSpaceOnUse">
<stop offset="0.156" stop-color="#D64A38"/>
<stop offset="1" stop-color="#FB7425"/>
</linearGradient>
<linearGradient id="paint17_linear_354_3251" x1="4.96575" y1="18.0629" x2="1.387" y2="16.3855" gradientUnits="userSpaceOnUse">
<stop offset="0.156" stop-color="#D64A38"/>
<stop offset="1" stop-color="#FB7425"/>
</linearGradient>
<linearGradient id="paint18_linear_354_3251" x1="13.0412" y1="22.0826" x2="13.0412" y2="18.2125" gradientUnits="userSpaceOnUse">
<stop stop-color="#E61E27"/>
<stop offset="1" stop-color="#672A7A"/>
</linearGradient>
<linearGradient id="paint19_linear_354_3251" x1="17.1022" y1="15.22" x2="17.9772" y2="18.2484" gradientUnits="userSpaceOnUse">
<stop stop-color="#EC9611"/>
<stop offset="1" stop-color="#EA9D26" stop-opacity="0"/>
</linearGradient>
<linearGradient id="paint20_linear_354_3251" x1="19.0364" y1="13.9346" x2="15.126" y2="13.9346" gradientUnits="userSpaceOnUse">
<stop stop-color="#432A3D"/>
<stop offset="0.568" stop-color="#684E61"/>
<stop offset="0.766" stop-color="#43253D"/>
</linearGradient>
<linearGradient id="paint21_linear_354_3251" x1="16.7807" y1="13.7981" x2="16.7807" y2="15.808" gradientUnits="userSpaceOnUse">
<stop offset="0.327" stop-color="#43253D" stop-opacity="0"/>
<stop offset="1" stop-color="#43253D"/>
</linearGradient>
<linearGradient id="paint22_linear_354_3251" x1="10.2541" y1="15.22" x2="11.1291" y2="18.2484" gradientUnits="userSpaceOnUse">
<stop stop-color="#E89311"/>
<stop offset="1" stop-color="#EA9D26" stop-opacity="0"/>
</linearGradient>
<linearGradient id="paint23_linear_354_3251" x1="12.0873" y1="13.9346" x2="8.17779" y2="13.9346" gradientUnits="userSpaceOnUse">
<stop stop-color="#432A3D"/>
<stop offset="0.568" stop-color="#684E61"/>
<stop offset="0.766" stop-color="#43253D"/>
</linearGradient>
<linearGradient id="paint24_linear_354_3251" x1="9.83154" y1="13.7981" x2="9.83154" y2="15.808" gradientUnits="userSpaceOnUse">
<stop offset="0.327" stop-color="#43253D" stop-opacity="0"/>
<stop offset="1" stop-color="#43253D"/>
</linearGradient>
<linearGradient id="paint25_linear_354_3251" x1="19.4331" y1="7.48323" x2="19.0866" y2="18.0279" gradientUnits="userSpaceOnUse">
<stop offset="0.548" stop-color="#FFDD65"/>
<stop offset="1" stop-color="#FFDD65" stop-opacity="0"/>
</linearGradient>
<linearGradient id="paint26_linear_354_3251" x1="22.2226" y1="11.5695" x2="21.1289" y2="8.53412" gradientUnits="userSpaceOnUse">
<stop stop-color="#EF8A47"/>
<stop offset="1" stop-color="#EF8A47" stop-opacity="0"/>
</linearGradient>
<radialGradient id="paint27_radial_354_3251" cx="0" cy="0" r="1" gradientUnits="userSpaceOnUse" gradientTransform="translate(19.0094 4.80136) rotate(55.7389) scale(6.8485 8.21122)">
<stop stop-color="#FFDF70"/>
<stop offset="1" stop-color="#FFDF70" stop-opacity="0"/>
</radialGradient>
<linearGradient id="paint28_linear_354_3251" x1="20.9232" y1="7.16738" x2="20.9232" y2="9.2175" gradientUnits="userSpaceOnUse">
<stop offset="0.432" stop-color="#FFE7A3"/>
<stop offset="1" stop-color="#FFDF83" stop-opacity="0"/>
</linearGradient>
</defs>
</svg>
